# File created by Blade
# Date/Time:  Tue Jan 27 19:38:14 2015
# Frame Rate: 120.000 fps
#------------------------------------------------------
:FULLY-SPECIFIED
:DEGREES
2020
root 4.815994 32.319852 2.214763 -4.360056 -2.940360 0.013311
Spine 2.794393 2.308444 -2.060187
Head 5.176962 -6.151549 6.624102
LeftShoulder -9.624396 -3.741764 26.716781
LeftArm -0.536330 35.344030 -100.796245
LeftForeArm 4.118374 -0.000000 9.422126
LeftHand 10.454459 0.000000 -4.070957
LeftHandThumb1 -26.253704 0.000000 33.147579
RightShoulder -15.174768 -17.061612 -23.557838
RightArm 6.431741 21.853869 101.149142
RightForeArm 2.999164 -0.000000 93.980980
RightHand 25.699042 -0.000000 -14.994254
RightHandThumb1 -24.326973 -0.000000 -32.862282
LeftUpLeg 9.037843 -0.996167 -3.611431
LeftLeg 2.887452 -0.000000 -0.000000
LeftFoot -18.227336 14.243332 -21.762237
LeftToeBase 17.057860 -0.000000 -0.000000
RightUpLeg 6.792346 -4.718476 2.681237
RightLeg 4.286099 -0.000000 -0.000000
RightFoot -12.898693 -12.909829 13.472693
RightToeBase 8.774110 -0.000000 -0.000000
2021
root 4.816893 32.320163 2.215215 -4.341260 -2.970294 0.006249
Spine 2.801024 2.187165 -2.062037
Head 5.145874 -6.056225 6.645968
LeftShoulder -9.696575 -3.661641 26.726420
LeftArm -0.420808 35.424705 -100.717452
LeftForeArm 4.110575 -0.000000 9.442190
LeftHand 10.443160 -0.000000 -3.807327
LeftHandThumb1 -26.253704 0.000000 33.147579
RightShoulder -15.309517 -17.207112 -23.509684
RightArm 6.255552 22.952772 101.130606
RightForeArm 3.191125 -0.000000 94.003795
RightHand 25.700219 0.000000 -14.983660
RightHandThumb1 -24.326973 -0.000000 -32.862282
LeftUpLeg 9.029315 -0.985250 -3.604718
LeftLeg 2.876584 -0.000000 -0.000000
LeftFoot -18.233097 14.247513 -21.768630
LeftToeBase 17.028076 -0.000000 -0.000000
RightUpLeg 6.763056 -4.699994 2.686788
RightLeg 4.301654 -0.000000 -0.000000
RightFoot -12.877694 -12.898882 13.465651
RightToeBase 8.759711 -0.000000 -0.000000
2022
root 4.817596 32.320735 2.215884 -4.337140 -3.005790 -0.002808
Spine 2.820774 2.092242 -2.069720
Head 5.126840 -5.998868 6.690602
LeftShoulder -9.715570 -3.631300 26.753500
LeftArm -0.366777 35.402794 -100.682936
LeftForeArm 4.068656 -0.000000 9.470807
LeftHand 10.481259 -0.000000 -4.127543
LeftHandThumb1 -26.253704 0.000000 33.147579
RightShoulder -15.442365 -17.365866 -23.480438
RightArm 6.037449 24.018312 101.089015
RightForeArm 3.319585 -0.000000 94.018846
RightHand 25.672146 -0.000000 -14.990432
RightHandThumb1 -24.326973 -0.000000 -32.862282
LeftUpLeg 9.037787 -0.958945 -3.591792
LeftLeg 2.852110 -0.000000 -0.000000
LeftFoot -18.218385 14.257651 -21.708192
LeftToeBase 17.118948 -0.000000 -0.000000
RightUpLeg 6.755723 -4.688324 2.694472
RightLeg 4.302874 -0.000000 -0.000000
RightFoot -12.875515 -12.884430 13.455787
RightToeBase 8.862627 -0.000000 -0.000000
2023
root 4.818880 32.321215 2.216882 -4.329185 -3.035657 -0.009415
Spine 2.833301 1.985569 -2.077208
Head 5.123436 -5.928531 6.727552
LeftShoulder -9.717920 -3.623774 26.767166
LeftArm -0.359565 35.389394 -100.664611
LeftForeArm 4.043050 0.000000 9.526036
LeftHand 10.461342 0.000000 -4.205098
LeftHandThumb1 -26.253704 0.000000 33.147579
RightShoulder -15.539508 -17.463769 -23.436481
RightArm 5.783700 25.086610 101.005048
RightForeArm 3.368633 -0.000000 94.027704
RightHand 25.808904 -0.000000 -15.077638
RightHandThumb1 -24.326973 -0.000000 -32.862282
LeftUpLeg 9.040766 -0.959017 -3.590416
LeftLeg 2.840020 -0.000000 -0.000000
LeftFoot -18.217196 14.288002 -21.698655
LeftToeBase 17.094961 -0.000000 -0.000000
RightUpLeg 6.739767 -4.684534 2.696507
RightLeg 4.316217 -0.000000 -0.000000
RightFoot -12.853601 -12.857958 13.450960
RightToeBase 8.740765 -0.000000 -0.000000
2024
root 4.821159 32.321555 2.217398 -4.309599 -3.073655 -0.012733
Spine 2.836126 1.858343 -2.075576
Head 5.108306 -5.837608 6.733749
LeftShoulder -9.764327 -3.651874 26.779503
LeftArm -0.417328 35.384718 -100.677948
LeftForeArm 3.980604 -0.000000 9.581298
LeftHand 10.454339 -0.000000 -4.224929
LeftHandThumb1 -26.253704 0.000000 33.147579
RightShoulder -15.638284 -17.568975 -23.408027
RightArm 5.619230 26.146141 101.055416
RightForeArm 3.385719 -0.000000 94.062146
RightHand 25.713095 -0.000000 -15.299028
RightHandThumb1 -24.326973 -0.000000 -32.862282
LeftUpLeg 9.029694 -0.966958 -3.597624
LeftLeg 2.842814 -0.000000 -0.000000
LeftFoot -18.247423 14.304356 -21.752418
LeftToeBase 17.105704 -0.000000 -0.000000
RightUpLeg 6.710011 -4.682898 2.694369
RightLeg 4.328141 -0.000000 -0.000000
RightFoot -12.848898 -12.813775 13.480687
RightToeBase 8.742644 -0.000000 -0.000000
2025
root 4.821309 32.321819 2.215997 -4.295220 -3.131810 -0.024932
Spine 2.853200 1.743499 -2.057938
Head 5.078448 -5.737518 6.722208
LeftShoulder -9.837080 -3.622874 26.781449
LeftArm -0.388455 35.427548 -100.633999
LeftForeArm 3.910736 -0.000000 9.628243
LeftHand 10.575442 0.000000 -4.460044
LeftHandThumb1 -26.253704 0.000000 33.147579
RightShoulder -15.710978 -17.661150 -23.391644
RightArm 5.439137 27.168039 101.075529
RightForeArm 3.437150 -0.000000 94.070751
RightHand 25.969052 -0.000000 -15.677551
RightHandThumb1 -24.326973 -0.000000 -32.862282
LeftUpLeg 9.028241 -0.930021 -3.584131
LeftLeg 2.816434 -0.000000 -0.000000
LeftFoot -18.235435 14.335989 -21.701025
LeftToeBase 17.137719 -0.000000 -0.000000
RightUpLeg 6.673745 -4.641836 2.710256
RightLeg 4.353867 -0.000000 -0.000000
RightFoot -12.823563 -12.810953 13.428749
RightToeBase 8.729772 -0.000000 -0.000000
